<?xml version="1.0" encoding="UTF-8"?>
<!-- Generator: Adobe Illustrator 15.0.2, SVG Export Plug-In . SVG Version: 6.00 Build 0)  -->
<!DOCTYPE svg PUBLIC "-//W3C//DTD SVG 1.1//EN" "http://www.w3.org/Graphics/SVG/1.1/DTD/svg11.dtd">
<svg version="1.1" id="Layer_1" xmlns="http://www.w3.org/2000/svg" xmlns:xlink="http://www.w3.org/1999/xlink" x="0px" y="0px" width="360px" height="360px" viewBox="0 0 360 360" enable-background="new 0 0 360 360" xml:space="preserve">
	<style type="text/css">
	.t{fill:#FFFFFF ;}
</style>
	<g>
		<path class="t" id="SVGID_1_" d="M173.984,192.752v-44.66h109.189V264.91c-10.598,4.131-24.637,8.24-42.118,12.318    c-17.483,4.076-34.914,6.117-52.291,6.117c-40.266,0-71.786-10.938-94.566-32.82c-22.783-21.877-34.171-52.104-34.171-90.671    c0-36.767,11.497-66.408,34.49-88.924c22.99-22.514,55.043-33.774,96.155-33.774c15.576,0,30.41,1.405,44.502,4.211    c14.091,2.81,29.774,8.399,47.046,16.768v55.468h-6.836c-2.967-2.226-7.31-5.377-13.031-9.457    c-5.723-4.077-11.233-7.549-16.529-10.41c-6.146-3.389-13.327-6.302-21.536-8.741c-8.213-2.435-16.927-3.655-26.145-3.655    c-10.808,0-20.61,1.589-29.404,4.768c-8.795,3.179-16.688,8.054-23.681,14.621c-6.675,6.358-11.947,14.439-15.814,24.237    c-3.868,9.803-5.8,21.114-5.8,33.934c0,26.172,6.938,46.198,20.82,60.079c13.88,13.881,34.381,20.82,61.507,20.82    c2.329,0,4.901-0.053,7.709-0.16c2.807-0.105,5.377-0.262,7.709-0.477v-46.41H173.984L173.984,192.752z M270.449,37.763    c-0.537,8.574-3.307,17.802-3.307,17.802s-16.099-11.602-32.471-16.404c-17.601-5.164-35.461-6.176-35.461-6.176    s13.657-11.786,28.506-17.492c9.989-3.839,42.674-12.707,42.674-12.707S271.375,23.015,270.449,37.763L270.449,37.763z     M115.803,55.255c0,0-7.398-7.662-15.818-11.818C79,33.079,41.483,21.302,41.483,21.302s4.259,37.414,19.035,63.817    C68.049,98.577,80.11,102.36,80.11,102.36l-6.247,18.063c0,0-12.036-5.964-19.662-22.585    C38.469,63.545,33.125,11.402,33.125,11.402s42.142,2.984,81.864,13.458c25.222,6.652,42.463,15.837,42.463,15.837    L115.803,55.255L115.803,55.255z M86.476,88.647c0,0,2.428-7.31-1.992-10.574C79.551,74.429,72.9,73.117,72.9,73.117    s3.87-1.536,7.886-2.513c3.727-0.906,8.633-1.121,8.633-1.121s-1.878-4.786-8.33-8.12c-7.503-3.875-19.742-6.376-19.742-6.376    s11.588-2.41,21.149-1.66c9.563,0.751,14.319,3.77,14.319,3.77s-0.117-2.804-4.321-6.176c-6.341-5.089-15.235-8.287-15.235-8.287    s11.844-0.202,23.764,3.79c6.674,2.233,15.429,8.101,15.429,8.101L86.476,88.647L86.476,88.647z M339.72,339.92    c-30.749,14.25-39.982-29.25-89.294-21.75c-49.313,7.5-167.262,69.75-193.917,6.748c-26.656-62.998,71.303-85.498,71.303-85.498    l38.648,42.748c0,0-63.972,5.252-57.975,20.252c5.998,14.998,73.303-41.25,146.604-45S370.47,325.67,339.72,339.92L339.72,339.92    z"/>
	</g>
</svg>